REM DIRINDEX 1\2,1\3,1\4,1\5,1\6
REM DIRNAME folder01,folder02,folder03,folder04,folder05,folder06
TITLE ""
FILE "DISC2Track32.mp3" MP3
  TRACK 01 AUDIO
    TITLE "0:"
    INDEX 01 00:00:00
  TRACK 02 AUDIO
    TITLE "3:cjc129_1937"
    INDEX 01 00:00:05
  TRACK 03 AUDIO
    TITLE "0:"
    INDEX 01 00:01:26
  TRACK 04 AUDIO
    TITLE "5:cjc129_1938"
    INDEX 01 00:01:60
  TRACK 05 AUDIO
    TITLE "0:"
    INDEX 01 00:03:12
  TRACK 06 AUDIO
    TITLE "4:cjc129_1939"
    INDEX 01 00:04:03
  TRACK 07 AUDIO
    TITLE "0:"
    INDEX 01 00:05:26
  TRACK 08 AUDIO
    TITLE "6:cjc129_1940"
    INDEX 01 00:05:57
  TRACK 09 AUDIO
    TITLE "0:"
    INDEX 01 00:10:02
  TRACK 10 AUDIO
    TITLE "3:cjc129_1941"
    INDEX 01 00:11:58
  TRACK 11 AUDIO
    TITLE "0:"
    INDEX 01 00:13:14
  TRACK 12 AUDIO
    TITLE "5:cjc129_1942"
    INDEX 01 00:13:45
  TRACK 13 AUDIO
    TITLE "0:"
    INDEX 01 00:17:47
  TRACK 14 AUDIO
    TITLE "4:cjc129_1943"
    INDEX 01 00:18:41
  TRACK 15 AUDIO
    TITLE "0:"
    INDEX 01 00:20:00
  TRACK 16 AUDIO
    TITLE "6:cjc129_1944"
    INDEX 01 00:20:32
  TRACK 17 AUDIO
    TITLE "0:"
    INDEX 01 00:22:48
  TRACK 18 AUDIO
    TITLE "3:cjc129_1945"
    INDEX 01 00:24:24
  TRACK 19 AUDIO
    TITLE "0:"
    INDEX 01 00:26:05
  TRACK 20 AUDIO
    TITLE "5:cjc129_1946"
    INDEX 01 00:26:36
  TRACK 21 AUDIO
    TITLE "0:"
    INDEX 01 00:28:59
  TRACK 22 AUDIO
    TITLE "4:cjc129_1947"
    INDEX 01 00:29:46
  TRACK 23 AUDIO
    TITLE "0:"
    INDEX 01 00:31:27
  TRACK 24 AUDIO
    TITLE "6:cjc129_1948"
    INDEX 01 00:31:57
  TRACK 25 AUDIO
    TITLE "0:"
    INDEX 01 00:36:38
  TRACK 26 AUDIO
    TITLE "3:cjc129_1949"
    INDEX 01 00:38:14
  TRACK 27 AUDIO
    TITLE "0:"
    INDEX 01 00:39:45
  TRACK 28 AUDIO
    TITLE "5:cjc129_1950"
    INDEX 01 00:39:74
  TRACK 29 AUDIO
    TITLE "0:"
    INDEX 01 00:44:05
  TRACK 30 AUDIO
    TITLE "4:cjc129_1951"
    INDEX 01 00:44:69
  TRACK 31 AUDIO
    TITLE "0:"
    INDEX 01 00:46:23
  TRACK 32 AUDIO
    TITLE "6:cjc129_1952"
    INDEX 01 00:46:54
  TRACK 33 AUDIO
    TITLE "0:"
    INDEX 01 00:51:05
  TRACK 34 AUDIO
    TITLE "3:cjc129_1953"
    INDEX 01 00:52:55
  TRACK 35 AUDIO
    TITLE "0:"
    INDEX 01 00:54:30
  TRACK 36 AUDIO
    TITLE "5:cjc129_1954"
    INDEX 01 00:54:64
  TRACK 37 AUDIO
    TITLE "0:"
    INDEX 01 00:57:68
  TRACK 38 AUDIO
    TITLE "4:cjc129_1955"
    INDEX 01 00:58:62
  TRACK 39 AUDIO
    TITLE "0:"
    INDEX 01 01:00:35
  TRACK 40 AUDIO
    TITLE "6:cjc129_1956"
    INDEX 01 01:00:72
  TRACK 41 AUDIO
    TITLE "0:"
    INDEX 01 01:05:38
  TRACK 42 AUDIO
    TITLE "3:cjc129_1957"
    INDEX 01 01:07:14
  TRACK 43 AUDIO
    TITLE "0:"
    INDEX 01 01:08:33
  TRACK 44 AUDIO
    TITLE "5:cjc129_1958"
    INDEX 01 01:08:64
  TRACK 45 AUDIO
    TITLE "0:"
    INDEX 01 01:11:17
  TRACK 46 AUDIO
    TITLE "4:cjc129_1959"
    INDEX 01 01:12:07
  TRACK 47 AUDIO
    TITLE "0:"
    INDEX 01 01:13:26
  TRACK 48 AUDIO
    TITLE "6:cjc129_1960"
    INDEX 01 01:13:55
  TRACK 49 AUDIO
    TITLE "0:"
    INDEX 01 01:17:47
  TRACK 50 AUDIO
    TITLE "3:cjc129_1961"
    INDEX 01 01:19:23
  TRACK 51 AUDIO
    TITLE "0:"
    INDEX 01 01:20:59
  TRACK 52 AUDIO
    TITLE "5:cjc129_1962"
    INDEX 01 01:22:29
  TRACK 53 AUDIO
    TITLE "0:"
    INDEX 01 01:23:50
  TRACK 54 AUDIO
    TITLE "4:cjc129_1963"
    INDEX 01 01:24:41
  TRACK 55 AUDIO
    TITLE "0:"
    INDEX 01 01:25:74
  TRACK 56 AUDIO
    TITLE "6:cjc129_1964"
    INDEX 01 01:26:32
  TRACK 57 AUDIO
    TITLE "0:"
    INDEX 01 01:30:71
  TRACK 58 AUDIO
    TITLE "3:cjc129_1965"
    INDEX 01 01:32:47
  TRACK 59 AUDIO
    TITLE "0:"
    INDEX 01 01:34:08
  TRACK 60 AUDIO
    TITLE "5:cjc129_1966"
    INDEX 01 01:35:41
  TRACK 61 AUDIO
    TITLE "0:"
    INDEX 01 01:37:11
  TRACK 62 AUDIO
    TITLE "4:cjc129_1967"
    INDEX 01 01:38:02
  TRACK 63 AUDIO
    TITLE "0:"
    INDEX 01 01:39:39
  TRACK 64 AUDIO
    TITLE "6:cjc129_1968"
    INDEX 01 01:39:68
  TRACK 65 AUDIO
    TITLE "0:"
    INDEX 01 01:45:18
